<svg width="40" height="40" viewBox="0 0 40 40" fill="none" xmlns="http://www.w3.org/2000/svg">
<rect x="0.383789" y="0.29541" width="39.4604" height="39.4604" rx="19.7302" fill="#E34147"/>
<path d="M20.9678 10.5399C22.1061 10.5399 23.1791 10.7534 24.187 11.1802C25.183 11.6189 26.0545 12.2118 26.8015 12.9588C27.5485 13.7058 28.1413 14.5773 28.58 15.5733C29.0069 16.5811 29.2203 17.6542 29.2203 18.7925C29.2203 19.0296 29.1373 19.2312 28.9713 19.3972C28.8053 19.5632 28.6037 19.6462 28.3666 19.6462C28.1295 19.6462 27.9279 19.5632 27.7619 19.3972C27.5959 19.2312 27.5129 19.0296 27.5129 18.7925C27.5129 17.8913 27.341 17.0436 26.9971 16.2491C26.6533 15.4547 26.1849 14.7611 25.592 14.1682C24.9992 13.5754 24.3055 13.107 23.5111 12.7631C22.7167 12.4193 21.8689 12.2474 20.9678 12.2474C20.7306 12.2474 20.5291 12.1644 20.3631 11.9984C20.1971 11.8324 20.1141 11.6308 20.1141 11.3937C20.1141 11.1565 20.1971 10.9549 20.3631 10.7889C20.5291 10.6229 20.7306 10.5399 20.9678 10.5399ZM21.2523 17.3696C21.4065 17.3696 21.5517 17.3993 21.6881 17.4586C21.8244 17.5178 21.946 17.6008 22.0527 17.7076C22.1594 17.8143 22.2424 17.9358 22.3017 18.0722C22.361 18.2085 22.3906 18.3538 22.3906 18.5079C22.3906 18.6621 22.361 18.8073 22.3017 18.9437C22.2424 19.08 22.1594 19.2016 22.0527 19.3083C21.946 19.415 21.8244 19.498 21.6881 19.5573C21.5517 19.6165 21.4065 19.6462 21.2523 19.6462C21.0982 19.6462 20.953 19.6165 20.8166 19.5573C20.6802 19.498 20.5587 19.415 20.452 19.3083C20.3453 19.2016 20.2623 19.08 20.203 18.9437C20.1437 18.8073 20.1141 18.6621 20.1141 18.5079C20.1141 18.3538 20.1437 18.2085 20.203 18.0722C20.2623 17.9358 20.3453 17.8143 20.452 17.7076C20.5587 17.6008 20.6802 17.5178 20.8166 17.4586C20.953 17.3993 21.0982 17.3696 21.2523 17.3696ZM20.1141 14.8085C20.1141 14.5714 20.1971 14.3698 20.3631 14.2038C20.5291 14.0378 20.7306 13.9548 20.9678 13.9548C21.6318 13.9548 22.2602 14.0793 22.8531 14.3283C23.434 14.5891 23.9439 14.9389 24.3826 15.3776C24.8213 15.8163 25.1711 16.3262 25.432 16.9072C25.681 17.5001 25.8055 18.1285 25.8055 18.7925C25.8055 19.0296 25.7225 19.2312 25.5565 19.3972C25.3905 19.5632 25.1889 19.6462 24.9518 19.6462C24.7146 19.6462 24.513 19.5632 24.347 19.3972C24.181 19.2312 24.098 19.0296 24.098 18.7925C24.098 17.9269 23.7927 17.1888 23.1821 16.5782C22.5714 15.9675 21.8333 15.6622 20.9678 15.6622C20.7306 15.6622 20.5291 15.5792 20.3631 15.4132C20.1971 15.2472 20.1141 15.0456 20.1141 14.8085ZM15.1874 10.5933C15.5313 10.4984 15.8633 10.5281 16.1834 10.6822C16.5036 10.8364 16.7348 11.0794 16.8771 11.4114L18.2999 14.8263C18.4185 15.1227 18.4392 15.4221 18.3622 15.7245C18.2851 16.0268 18.128 16.2788 17.8909 16.4803L16.1301 17.921C16.4265 18.5376 16.7763 19.1304 17.1794 19.6995C17.5707 20.2568 18.0094 20.7785 18.4956 21.2647C18.9817 21.7508 19.5034 22.1895 20.0607 22.5808C20.6298 22.984 21.2227 23.3337 21.8393 23.6302L23.2799 21.8694C23.4815 21.6323 23.7334 21.4751 24.0358 21.3981C24.3382 21.321 24.6375 21.3418 24.934 21.4603L28.3488 22.8832C28.6808 23.0255 28.9239 23.2567 29.078 23.5768C29.2322 23.897 29.2618 24.229 29.167 24.5728L28.3132 27.7031C28.2302 28.0114 28.0613 28.2633 27.8064 28.459C27.5514 28.6546 27.2639 28.7524 26.9437 28.7524C24.7383 28.7524 22.6693 28.3374 20.7366 27.5074C18.8039 26.6656 17.1172 25.5243 15.6765 24.0837C14.2359 22.6431 13.0947 20.9564 12.2528 19.0237C11.4228 17.091 11.0078 15.0219 11.0078 12.8165C11.0078 12.4964 11.1056 12.2088 11.3013 11.9539C11.4969 11.699 11.7489 11.53 12.0572 11.447L15.1874 10.5933Z" fill="white"/>
</svg>
