<svg width="71" height="71" viewBox="0 0 71 71" fill="none" xmlns="http://www.w3.org/2000/svg">
<circle cx="35.5" cy="35.5" r="35.5" fill="#E34147"/>
<g clip-path="url(#clip0_17_1679)">
<path d="M49.6667 49.3346H48.3334V35.334C48.3334 33.6979 47.4827 32.2605 46.204 31.4271L39.7681 21.9841C39.0721 20.8027 37.8001 20 36.3335 20C34.1282 20 32.3335 21.7947 32.3335 24.0002C32.3335 24.4869 32.4335 24.9482 32.5935 25.3816L27.8509 29.3337H25.2096C23.4296 29.3337 21.755 30.0271 20.4963 31.2858L19.391 32.3912C18.8697 32.9125 18.8697 33.7552 19.391 34.2766C19.9123 34.7979 20.755 34.7979 21.2763 34.2766L22.3816 33.1712C23.127 32.4272 24.1576 32.0005 25.2096 32.0005H27.0002V33.7912C27.0002 34.8446 26.5736 35.874 25.8296 36.6194L24.7243 37.7247C24.2029 38.2461 24.2029 39.0888 24.7243 39.6101C24.9843 39.8702 25.3256 40.0008 25.6669 40.0008C26.0083 40.0008 26.3496 39.8702 26.6096 39.6101L27.7149 38.5048C28.9736 37.2461 29.6669 35.5713 29.6669 33.7912V31.2911L34.0215 27.6617L39.0321 35.014C39.0241 35.122 39.0001 35.2233 39.0001 35.3326V49.3332H37.6668C36.9308 49.3332 36.3335 49.9306 36.3335 50.6666C36.3335 51.4026 36.9308 52 37.6668 52H49.6667C50.4027 52 51 51.4026 51 50.6666C51 49.9306 50.4027 49.3346 49.6667 49.3346ZM36.3335 25.3336C35.5975 25.3336 35.0002 24.7362 35.0002 24.0002C35.0002 23.2641 35.5975 22.6668 36.3335 22.6668C37.0695 22.6668 37.6668 23.2641 37.6668 24.0002C37.6668 24.7362 37.0695 25.3336 36.3335 25.3336ZM37.3721 27.8457C38.2495 27.6083 39.0055 27.0843 39.5335 26.3736L42.5588 30.8138C41.6774 31.0298 40.8961 31.4911 40.2908 32.1285L37.3721 27.8457ZM45.6667 49.3346H41.6668V39.5328C42.2748 39.8248 42.9481 40.0008 43.6667 40.0008C44.3854 40.0008 45.0587 39.8235 45.6667 39.5328V49.3346ZM43.6667 37.3341C42.5641 37.3341 41.6668 36.4367 41.6668 35.334C41.6668 34.2313 42.5641 33.3339 43.6667 33.3339C44.7694 33.3339 45.6667 34.2313 45.6667 35.334C45.6667 36.4367 44.7694 37.3341 43.6667 37.3341Z" fill="white"/>
</g>
<defs>
<clipPath id="clip0_17_1679">
<rect width="30" height="30" fill="white" transform="translate(20 21)"/>
</clipPath>
</defs>
</svg>
