<svg width="71" height="71" viewBox="0 0 71 71" fill="none" xmlns="http://www.w3.org/2000/svg">
<circle cx="35.5" cy="35.5" r="35.5" fill="#E34147"/>
<g clip-path="url(#clip0_17_1688)">
<path d="M50 32.25V40.285C50 41.8238 49.0125 43.1725 47.485 43.7187C45.9988 44.2512 45 45.6712 45 47.25V49.75C45 50.4412 44.44 51 43.75 51C43.06 51 42.5 50.4412 42.5 49.75V47.25C42.5 45.1825 40.8175 43.5 38.75 43.5C36.6825 43.5 35 45.1825 35 47.25V49.75C35 50.4412 34.44 51 33.75 51C33.06 51 32.5 50.4412 32.5 49.75V47.25C32.5 45.5375 31.3438 44.045 29.6875 43.6187C29.0187 43.4462 28.6175 42.7638 28.7888 42.0963C28.96 41.4288 29.64 41.0262 30.3112 41.1962C31.7337 41.5637 32.9288 42.4075 33.76 43.5262C34.9013 42.0025 36.7038 41 38.75 41C40.7962 41 42.6025 42.0038 43.7438 43.53C44.4638 42.56 45.4562 41.79 46.6425 41.365C47.1637 41.1787 47.5012 40.755 47.5012 40.285V37.25H30C29.31 37.25 28.75 36.6912 28.75 36C28.75 35.3088 29.31 34.75 30 34.75H32.5V32.25C32.5 31.5588 33.06 31 33.75 31C34.44 31 35 31.5588 35 32.25V34.75H40V32.25C40 31.5588 40.56 31 41.25 31C41.94 31 42.5 31.5588 42.5 32.25V34.75H47.5V32.25C47.5 31.5588 48.06 31 48.75 31C49.44 31 50 31.5588 50 32.25ZM30 49.75C30 50.4412 29.44 51 28.75 51H21.25C20.56 51 20 50.4412 20 49.75C20 49.0588 20.56 48.5 21.25 48.5H23.75V30.8062C23.015 30.4712 22.5 29.7338 22.5 28.875V28.5H21.25C20.56 28.5 20 27.9412 20 27.25C20 26.5588 20.56 26 21.25 26H22.5V25.625C22.5 24.7663 23.015 24.0287 23.75 23.6937V22.25C23.75 21.5588 24.31 21 25 21C25.69 21 26.25 21.5588 26.25 22.25V23.6075C26.8762 23.7575 27.4537 24.0662 27.9212 24.5325L28.9662 25.5788C29.0962 25.7088 29.2062 25.8538 29.3125 26H48.75C49.44 26 50 26.5588 50 27.25C50 27.9412 49.44 28.5 48.75 28.5H30V28.875C30 30.0475 29.0463 31 27.875 31H26.25V48.5H28.75C29.44 48.5 30 49.0588 30 49.75ZM27.1987 27.3475L26.1537 26.3013C25.9625 26.11 25.6975 26 25.4263 26H25V28.5H27.5V28.0737C27.5 27.7987 27.3937 27.54 27.1987 27.3475Z" fill="white"/>
</g>
<defs>
<clipPath id="clip0_17_1688">
<rect width="30" height="30" fill="white" transform="translate(20 21)"/>
</clipPath>
</defs>
</svg>
