<svg width="10" height="14" viewBox="0 0 10 14" fill="none" xmlns="http://www.w3.org/2000/svg">
<path d="M5.66125 13.1805C5.98881 12.7773 6.39195 12.2524 6.87068 11.6057C7.35781 10.9506 7.82604 10.2598 8.27537 9.53329C8.72471 8.80679 9.10895 8.0824 9.42811 7.36011C9.74726 6.63781 9.90684 5.9995 9.90684 5.44518C9.90684 4.78168 9.78085 4.15597 9.52889 3.56806C9.27693 2.98014 8.93048 2.46572 8.48954 2.02478C8.04861 1.58385 7.53418 1.2374 6.94627 0.985434C6.36675 0.733471 5.74104 0.607489 5.06914 0.607489C4.40564 0.607489 3.77993 0.733471 3.19201 0.985434C2.6041 1.2374 2.08967 1.58385 1.64874 2.02478C1.2078 2.46572 0.861354 2.98014 0.60939 3.56806C0.357427 4.14757 0.231445 4.77328 0.231445 5.44518C0.231445 5.9995 0.391022 6.63781 0.710176 7.36011C1.02933 8.0824 1.41357 8.80679 1.86291 9.53329C2.31224 10.2598 2.78047 10.9506 3.2676 11.6057C3.74633 12.2524 4.14947 12.7773 4.47703 13.1805C4.6282 13.3736 4.82558 13.4702 5.06914 13.4702C5.31271 13.4702 5.51008 13.3736 5.66125 13.1805ZM5.06914 3.83262C5.27911 3.83262 5.48488 3.87251 5.68645 3.9523C5.88802 4.03209 6.0644 4.14757 6.21557 4.29875C6.36675 4.44993 6.48223 4.6263 6.56202 4.82787C6.64181 5.02944 6.68171 5.23522 6.68171 5.44518C6.68171 5.65515 6.64181 5.86092 6.56202 6.06249C6.48223 6.26406 6.36675 6.44044 6.21557 6.59162C6.0644 6.74279 5.88802 6.85828 5.68645 6.93807C5.48488 7.01786 5.27911 7.05775 5.06914 7.05775C4.85917 7.05775 4.6534 7.01786 4.45183 6.93807C4.25026 6.85828 4.07389 6.74279 3.92271 6.59162C3.77153 6.44044 3.65605 6.26406 3.57626 6.06249C3.49647 5.86092 3.45658 5.65515 3.45658 5.44518C3.45658 5.23522 3.49647 5.02944 3.57626 4.82787C3.65605 4.6263 3.77153 4.44993 3.92271 4.29875C4.07389 4.14757 4.25026 4.03209 4.45183 3.9523C4.6534 3.87251 4.85917 3.83262 5.06914 3.83262Z" fill="#E34147"/>
</svg>
