<svg width="14" height="13" viewBox="0 0 14 13" fill="none" xmlns="http://www.w3.org/2000/svg">
<path d="M1.84401 5.23094L6.68171 1.65306L11.5194 5.23094V6.42777L7.52578 9.38834C7.3998 9.48072 7.26542 9.55001 7.12264 9.5962C6.97986 9.6424 6.83288 9.66549 6.68171 9.66549C6.53053 9.66549 6.38355 9.6424 6.24077 9.5962C6.09799 9.55001 5.96361 9.48072 5.83763 9.38834L1.84401 6.42777V5.23094ZM6.68171 -0.00989532C6.53053 -0.00989532 6.38355 0.0132017 6.24077 0.0593948C6.09799 0.105588 5.96361 0.174878 5.83763 0.267264L0.88655 3.93333C0.67658 4.09291 0.514904 4.28608 0.401521 4.51285C0.288137 4.73961 0.231445 4.97898 0.231445 5.23094V11.2781C0.231445 11.7232 0.388922 12.1032 0.703876 12.4182C1.01883 12.7331 1.39888 12.8906 1.84401 12.8906H11.5194C11.9645 12.8906 12.3446 12.7331 12.6595 12.4182C12.9745 12.1032 13.132 11.7232 13.132 11.2781V5.23094C13.132 4.97898 13.0753 4.73751 12.9619 4.50655C12.8485 4.27558 12.6868 4.08451 12.4769 3.93333L7.52578 0.267264C7.3998 0.174878 7.26542 0.105588 7.12264 0.0593948C6.97986 0.0132017 6.83288 -0.00989532 6.68171 -0.00989532Z" fill="#E34147"/>
</svg>
